<svg height="400" style='style="outline: 5px solid #800000;"' viewBox="0 0 400 400" width="400" xmlns="http://www.w3.org/2000/svg">
<rect fill="#ffffff" height="400" width="400" x="0" y="0"/>
<path d="M200,200 L200,200 L200,200 L200,200 L200,200 L200,200 L200,520 L200,-40 L200,440 L200,160 L200,80 L200,80 L360,80 L360,80 L360,80 L0,80 L0,80 L0,80 L0,80 L0,80 L0,80 L0,-40 L0,200 L0,200 L0,-160 L0,200 L-240,200 L280,200 L640,200 L200,200 L200,480 L200,40 L200,-40 L200,200 L200,200 L200,200 L200,40 L200,-200 L200,200 L160,200 L40,200" fill="none" stroke="#2f2f2f" stroke-width="0.9"/>
<rect fill="#ffffff" fill-opacity="0.0" height="400" stroke="#cccccc" stroke-width="15" width="400" x="0" y="0"/>
</svg>