<svg height="400" style='style="outline: 5px solid #800000;"' viewBox="0 0 400 400" width="400" xmlns="http://www.w3.org/2000/svg">
<rect fill="#ffffff" height="400" width="400" x="0" y="0"/>
<path d="M200,200 L200,400 L200,480 L200,200 L200,200 L200,200 L-40,200 L520,200 L40,200 L-80,200 L360,200 L400,200 L680,200 L-40,200 L400,200 L400,200 L400,200 L520,200 L40,200 L40,200 L40,440 L40,160 L40,0 L200,200 L200,200 L-80,200 L200,200 L280,200 L440,200 L-160,200 L200,200 L200,200 L-40,200 L200,200 L200,200 L200,200 L200,200 L200,320 L200,320 L200,320 L200,320" fill="none" stroke="#2f2f2f" stroke-width="0.9"/>
<rect fill="#ffffff" fill-opacity="0.0" height="400" stroke="#cccccc" stroke-width="15" width="400" x="0" y="0"/>
</svg>