<svg height="400" style='style="outline: 5px solid #800000;"' viewBox="0 0 400 400" width="400" xmlns="http://www.w3.org/2000/svg">
<rect fill="#ffffff" height="400" width="400" x="0" y="0"/>
<path d="M200,200 L200,200 L0,200 L-280,200 L280,200 L280,200 L280,320 L280,680 L280,-40 L280,200 L280,200 L280,200 L-80,200 L280,200 L200,200 L440,200 L-40,200 L280,200 L600,200 L-80,200 L240,200 L400,200 L400,200 L400,200 L480,200 L200,200 L200,200 L200,200 L200,200 L200,200 L200,-80 L200,280 L200,280 L-160,280 L360,280 L360,280 L360,360 L360,440 L360,0 L360,-320 L360,200" fill="none" stroke="#2f2f2f" stroke-width="0.9"/>
<rect fill="#ffffff" fill-opacity="0.0" height="400" stroke="#cccccc" stroke-width="15" width="400" x="0" y="0"/>
</svg>